<svg width="40" height="40" viewBox="0 0 40 40" fill="none" xmlns="http://www.w3.org/2000/svg">
<path d="M4.84467 8.46961H30.5423V4.84558H4.84467V8.46961Z" fill="#EDEAFF"/>
<path d="M32.5191 7.64536V35.4845L34.0016 35.3198L35.4842 33.8372V7.64536H32.5191Z" fill="#EDEAFF"/>
<path d="M15.6793 8.87286C15.4331 8.86988 15.1967 8.77573 15.0158 8.60862L14.7662 8.90515C15.0112 9.12679 15.3315 9.24651 15.6617 9.23985C16.1552 9.23985 16.4459 8.98442 16.4459 8.59928C16.4459 8.22562 16.1579 8.09724 15.7236 8.00035C15.4124 7.92963 15.2918 7.88292 15.2918 7.73585C15.2918 7.61575 15.4033 7.5186 15.5883 7.5186C15.7999 7.52574 16.0029 7.60439 16.164 7.74173L16.3901 7.43052C16.1705 7.24293 15.889 7.14354 15.6003 7.15161C15.1597 7.15161 14.853 7.40703 14.853 7.77989C14.853 8.17064 15.1554 8.29101 15.5811 8.3879C15.8894 8.45836 16.0068 8.5024 16.0068 8.64626C16.0081 8.77304 15.8966 8.87286 15.6793 8.87286Z" fill="url(#paint0_linear_145_476)"/>
<path d="M8.02833 7.9012L9.00039 9.20475H9.43491V7.1875H9.00039V8.49132L8.02833 7.1875H7.59675V9.20475H8.02833V7.9012Z" fill="url(#paint1_linear_145_476)"/>
<path d="M11.4052 8.81427H10.2861V8.37095H11.2992V7.9802H10.2861V7.57825H11.4052V7.1875H9.85183V9.20475H11.4052V8.81427Z" fill="url(#paint2_linear_145_476)"/>
<path d="M13.1195 7.81899L12.6409 9.20475H12.2035L11.5925 7.1875H12.0625L12.4354 8.54123L12.8817 7.1875H13.3514L13.7979 8.54123L14.1708 7.1875H14.6406L14.0299 9.20475H13.5951L13.1195 7.81899Z" fill="url(#paint3_linear_145_476)"/>
<path d="M17.1767 8.81427H18.181V9.20475H16.7422V7.1875H17.1767V8.81427Z" fill="url(#paint4_linear_145_476)"/>
<path d="M20.0131 8.81427H18.8939V8.37095H19.9071V7.9802H18.8939V7.57825H20.0131V7.1875H18.4597V9.20475H20.0131V8.81427Z" fill="url(#paint5_linear_145_476)"/>
<path d="M21.2987 9.20475H20.8639V7.57825H20.2359V7.1875H21.927V7.57825H21.2987V9.20475Z" fill="url(#paint6_linear_145_476)"/>
<path d="M22.7403 9.20475H23.1751V7.57825H23.8031V7.1875H22.112V7.57825H22.7403V9.20475Z" fill="url(#paint7_linear_145_476)"/>
<path d="M24.5283 8.81427H25.6471V9.20475H24.0938V7.1875H25.6471V7.57825H24.5283V7.9802H25.5415V8.37095H24.5283V8.81427Z" fill="url(#paint8_linear_145_476)"/>
<path fill-rule="evenodd" clip-rule="evenodd" d="M26.4075 8.5491H26.7278L27.189 9.20381H27.6817L27.1855 8.49919C27.3193 8.4568 27.4361 8.37262 27.5185 8.25901C27.601 8.14541 27.6449 8.00835 27.6438 7.86797C27.6417 7.77225 27.62 7.67798 27.58 7.59099C27.54 7.504 27.4826 7.42616 27.4112 7.36228C27.3399 7.29839 27.2563 7.24984 27.1654 7.21961C27.0746 7.18939 26.9785 7.17814 26.8831 7.18657H25.9756V9.20381H26.4072L26.4075 8.5491ZM26.4075 7.58319H26.8361C27.0497 7.58319 27.1975 7.69475 27.1975 7.86797C27.1975 8.04119 27.0505 8.15275 26.8361 8.15275H26.4075V7.58319Z" fill="url(#paint9_linear_145_476)"/>
<path fill-rule="evenodd" clip-rule="evenodd" d="M6.96813 18.6822H18.2064C18.2689 18.6822 18.3308 18.6694 18.3885 18.6446C18.4463 18.6198 18.4988 18.5834 18.543 18.5375C18.5871 18.4916 18.6222 18.4371 18.6461 18.3771C18.67 18.3172 18.6823 18.2529 18.6822 18.188V11.5988C18.6822 11.4678 18.6321 11.3421 18.5429 11.2494C18.4536 11.1567 18.3326 11.1046 18.2064 11.1046H6.96813C6.84194 11.1046 6.72091 11.1567 6.63168 11.2494C6.54245 11.3421 6.49232 11.4678 6.49232 11.5988V18.188C6.49228 18.2529 6.50456 18.3172 6.52846 18.3771C6.55236 18.4371 6.58741 18.4916 6.6316 18.5375C6.67579 18.5834 6.72826 18.6198 6.786 18.6446C6.84375 18.6694 6.90564 18.6822 6.96813 18.6822ZM7.44395 12.093H17.7306V17.6938H7.44395V12.093Z" fill="url(#paint10_linear_145_476)"/>
<path d="M21.4164 11.4335H28.2224C28.3463 11.4335 28.4651 11.4827 28.5527 11.5703C28.6403 11.6579 28.6895 11.7767 28.6895 11.9006C28.6895 12.0244 28.6403 12.1433 28.5527 12.2308C28.4651 12.3184 28.3463 12.3676 28.2224 12.3676H21.4164C21.2925 12.3676 21.1737 12.3184 21.0861 12.2308C20.9985 12.1433 20.9493 12.0244 20.9493 11.9006C20.9493 11.7767 20.9985 11.6579 21.0861 11.5703C21.1737 11.4827 21.2925 11.4335 21.4164 11.4335Z" fill="url(#paint11_linear_145_476)"/>
<path d="M28.2224 14.3986H21.4164C21.2925 14.3986 21.1737 14.4478 21.0861 14.5354C20.9985 14.623 20.9493 14.7418 20.9493 14.8657C20.9493 14.9896 20.9985 15.1084 21.0861 15.196C21.1737 15.2836 21.2925 15.3328 21.4164 15.3328H28.2224C28.3463 15.3328 28.4651 15.2836 28.5527 15.196C28.6403 15.1084 28.6895 14.9896 28.6895 14.8657C28.6895 14.7418 28.6403 14.623 28.5527 14.5354C28.4651 14.4478 28.3463 14.3986 28.2224 14.3986Z" fill="url(#paint12_linear_145_476)"/>
<path d="M21.4164 17.6944H28.2224C28.3463 17.6944 28.4651 17.7436 28.5527 17.8312C28.6403 17.9188 28.6895 18.0376 28.6895 18.1615C28.6895 18.2853 28.6403 18.4042 28.5527 18.4917C28.4651 18.5793 28.3463 18.6285 28.2224 18.6285H21.4164C21.2925 18.6285 21.1737 18.5793 21.0861 18.4917C20.9985 18.4042 20.9493 18.2853 20.9493 18.1615C20.9493 18.0376 20.9985 17.9188 21.0861 17.8312C21.1737 17.7436 21.2925 17.6944 21.4164 17.6944Z" fill="url(#paint13_linear_145_476)"/>
<path d="M28.2223 20.9884H7.05514C6.93127 20.9884 6.81246 21.0376 6.72487 21.1252C6.63727 21.2128 6.58806 21.3316 6.58806 21.4554C6.58806 21.5793 6.63727 21.6981 6.72487 21.7857C6.81246 21.8733 6.93127 21.9225 7.05514 21.9225H28.2223C28.3462 21.9225 28.465 21.8733 28.5526 21.7857C28.6402 21.6981 28.6894 21.5793 28.6894 21.4554C28.6894 21.3316 28.6402 21.2128 28.5526 21.1252C28.465 21.0376 28.3462 20.9884 28.2223 20.9884Z" fill="url(#paint14_linear_145_476)"/>
<path d="M7.055 24.2823H28.2222C28.3461 24.2823 28.4649 24.3315 28.5525 24.4191C28.6401 24.5067 28.6893 24.6255 28.6893 24.7494C28.6893 24.8733 28.6401 24.9921 28.5525 25.0797C28.4649 25.1673 28.3461 25.2165 28.2222 25.2165H7.055C6.93113 25.2165 6.81232 25.1673 6.72473 25.0797C6.63713 24.9921 6.58792 24.8733 6.58792 24.7494C6.58792 24.6255 6.63713 24.5067 6.72473 24.4191C6.81232 24.3315 6.93113 24.2823 7.055 24.2823Z" fill="url(#paint15_linear_145_476)"/>
<path d="M28.2222 27.5781H7.055C6.93113 27.5781 6.81232 27.6273 6.72473 27.7149C6.63713 27.8025 6.58792 27.9213 6.58792 28.0452C6.58792 28.1691 6.63713 28.2879 6.72473 28.3755C6.81232 28.4631 6.93113 28.5123 7.055 28.5123H28.2222C28.3461 28.5123 28.4649 28.4631 28.5525 28.3755C28.6401 28.2879 28.6893 28.1691 28.6893 28.0452C28.6893 27.9213 28.6401 27.8025 28.5525 27.7149C28.4649 27.6273 28.3461 27.5781 28.2222 27.5781Z" fill="url(#paint16_linear_145_476)"/>
<path d="M7.05514 30.8721H28.2223C28.3462 30.8721 28.465 30.9213 28.5526 31.0089C28.6402 31.0965 28.6894 31.2153 28.6894 31.3392C28.6894 31.463 28.6402 31.5818 28.5526 31.6694C28.465 31.757 28.3462 31.8062 28.2223 31.8062H7.05514C6.93127 31.8062 6.81246 31.757 6.72487 31.6694C6.63727 31.5818 6.58806 31.463 6.58806 31.3392C6.58806 31.2153 6.63727 31.0965 6.72487 31.0089C6.81246 30.9213 6.93127 30.8721 7.05514 30.8721Z" fill="url(#paint17_linear_145_476)"/>
<path fill-rule="evenodd" clip-rule="evenodd" d="M31.0924 7.07739H35.3469C35.4082 7.07735 35.469 7.08941 35.5257 7.11286C35.5824 7.13632 35.6339 7.17072 35.6773 7.2141C35.7207 7.25747 35.7551 7.30897 35.7786 7.36566C35.8021 7.42235 35.8142 7.4831 35.8142 7.54447V32.9856C35.8131 33.6937 35.5466 34.3758 35.0673 34.8971C34.5881 35.4185 33.9308 35.7413 33.2253 35.8019C33.1919 35.8097 33.1578 35.8138 33.1236 35.8139H7.85594C6.88295 35.8129 5.95011 35.4259 5.2621 34.7379C4.57408 34.0499 4.18709 33.117 4.18604 32.144V4.65311C4.18604 4.52924 4.23525 4.41043 4.32284 4.32284C4.41043 4.23525 4.52924 4.18604 4.65311 4.18604H30.6254C30.7492 4.18611 30.868 4.23534 30.9556 4.32292C31.0431 4.4105 31.0924 4.52926 31.0924 4.65311V7.07739ZM5.12019 5.12019V32.144C5.12097 32.8694 5.40945 33.5648 5.92233 34.0776C6.43522 34.5905 7.13061 34.879 7.85594 34.8798H30.8923C30.4201 34.3616 30.1583 33.6858 30.1583 32.9848V5.12019H5.12019ZM34.7531 33.7288C34.8447 33.4921 34.8878 33.2393 34.8798 32.9856V8.01154H31.0916V32.9856C31.0837 33.2393 31.1268 33.4921 31.2184 33.7288C31.31 33.9656 31.4482 34.1815 31.6249 34.3638C31.8015 34.5461 32.013 34.6911 32.2468 34.7901C32.4806 34.8891 32.7319 34.9401 32.9857 34.9401C33.2396 34.9401 33.4909 34.8891 33.7246 34.7901C33.9584 34.6911 34.1699 34.5461 34.3466 34.3638C34.5232 34.1815 34.6615 33.9656 34.7531 33.7288Z" fill="url(#paint18_linear_145_476)"/>
<defs>
<linearGradient id="paint0_linear_145_476" x1="4.18604" y1="4.18604" x2="35.3198" y2="35.8139" gradientUnits="userSpaceOnUse">
<stop stop-color="#0B27BA"/>
<stop offset="1" stop-color="#6C7AF6"/>
</linearGradient>
<linearGradient id="paint1_linear_145_476" x1="4.18604" y1="4.18604" x2="35.3198" y2="35.8139" gradientUnits="userSpaceOnUse">
<stop stop-color="#0B27BA"/>
<stop offset="1" stop-color="#6C7AF6"/>
</linearGradient>
<linearGradient id="paint2_linear_145_476" x1="4.18604" y1="4.18604" x2="35.3198" y2="35.8139" gradientUnits="userSpaceOnUse">
<stop stop-color="#0B27BA"/>
<stop offset="1" stop-color="#6C7AF6"/>
</linearGradient>
<linearGradient id="paint3_linear_145_476" x1="4.18604" y1="4.18604" x2="35.3198" y2="35.8139" gradientUnits="userSpaceOnUse">
<stop stop-color="#0B27BA"/>
<stop offset="1" stop-color="#6C7AF6"/>
</linearGradient>
<linearGradient id="paint4_linear_145_476" x1="4.18604" y1="4.18604" x2="35.3198" y2="35.8139" gradientUnits="userSpaceOnUse">
<stop stop-color="#0B27BA"/>
<stop offset="1" stop-color="#6C7AF6"/>
</linearGradient>
<linearGradient id="paint5_linear_145_476" x1="4.18604" y1="4.18604" x2="35.3198" y2="35.8139" gradientUnits="userSpaceOnUse">
<stop stop-color="#0B27BA"/>
<stop offset="1" stop-color="#6C7AF6"/>
</linearGradient>
<linearGradient id="paint6_linear_145_476" x1="4.18604" y1="4.18604" x2="35.3198" y2="35.8139" gradientUnits="userSpaceOnUse">
<stop stop-color="#0B27BA"/>
<stop offset="1" stop-color="#6C7AF6"/>
</linearGradient>
<linearGradient id="paint7_linear_145_476" x1="4.18604" y1="4.18604" x2="35.3198" y2="35.8139" gradientUnits="userSpaceOnUse">
<stop stop-color="#0B27BA"/>
<stop offset="1" stop-color="#6C7AF6"/>
</linearGradient>
<linearGradient id="paint8_linear_145_476" x1="4.18604" y1="4.18604" x2="35.3198" y2="35.8139" gradientUnits="userSpaceOnUse">
<stop stop-color="#0B27BA"/>
<stop offset="1" stop-color="#6C7AF6"/>
</linearGradient>
<linearGradient id="paint9_linear_145_476" x1="4.18604" y1="4.18604" x2="35.3198" y2="35.8139" gradientUnits="userSpaceOnUse">
<stop stop-color="#0B27BA"/>
<stop offset="1" stop-color="#6C7AF6"/>
</linearGradient>
<linearGradient id="paint10_linear_145_476" x1="4.18604" y1="4.18604" x2="35.3198" y2="35.8139" gradientUnits="userSpaceOnUse">
<stop stop-color="#0B27BA"/>
<stop offset="1" stop-color="#6C7AF6"/>
</linearGradient>
<linearGradient id="paint11_linear_145_476" x1="4.18604" y1="4.18604" x2="35.3198" y2="35.8139" gradientUnits="userSpaceOnUse">
<stop stop-color="#0B27BA"/>
<stop offset="1" stop-color="#6C7AF6"/>
</linearGradient>
<linearGradient id="paint12_linear_145_476" x1="4.18604" y1="4.18604" x2="35.3198" y2="35.8139" gradientUnits="userSpaceOnUse">
<stop stop-color="#0B27BA"/>
<stop offset="1" stop-color="#6C7AF6"/>
</linearGradient>
<linearGradient id="paint13_linear_145_476" x1="4.18604" y1="4.18604" x2="35.3198" y2="35.8139" gradientUnits="userSpaceOnUse">
<stop stop-color="#0B27BA"/>
<stop offset="1" stop-color="#6C7AF6"/>
</linearGradient>
<linearGradient id="paint14_linear_145_476" x1="4.18604" y1="4.18604" x2="35.3198" y2="35.8139" gradientUnits="userSpaceOnUse">
<stop stop-color="#0B27BA"/>
<stop offset="1" stop-color="#6C7AF6"/>
</linearGradient>
<linearGradient id="paint15_linear_145_476" x1="4.18604" y1="4.18604" x2="35.3198" y2="35.8139" gradientUnits="userSpaceOnUse">
<stop stop-color="#0B27BA"/>
<stop offset="1" stop-color="#6C7AF6"/>
</linearGradient>
<linearGradient id="paint16_linear_145_476" x1="4.18604" y1="4.18604" x2="35.3198" y2="35.8139" gradientUnits="userSpaceOnUse">
<stop stop-color="#0B27BA"/>
<stop offset="1" stop-color="#6C7AF6"/>
</linearGradient>
<linearGradient id="paint17_linear_145_476" x1="4.18604" y1="4.18604" x2="35.3198" y2="35.8139" gradientUnits="userSpaceOnUse">
<stop stop-color="#0B27BA"/>
<stop offset="1" stop-color="#6C7AF6"/>
</linearGradient>
<linearGradient id="paint18_linear_145_476" x1="4.18604" y1="4.18604" x2="35.3198" y2="35.8139" gradientUnits="userSpaceOnUse">
<stop stop-color="#0B27BA"/>
<stop offset="1" stop-color="#6C7AF6"/>
</linearGradient>
</defs>
</svg>
