<svg width="40" height="31" viewBox="0 0 40 31" fill="none" xmlns="http://www.w3.org/2000/svg">
<path fill-rule="evenodd" clip-rule="evenodd" d="M38.8338 0.905029H1.83273V4.06366H2.50948V21.8865V29.1062L3.41195 30.0086H10.1804C7.24742 30.0086 5.66811 28.2037 5.66811 25.2707V4.06366H38.8338V0.905029Z" fill="#EDEAFF"/>
<path fill-rule="evenodd" clip-rule="evenodd" d="M38.4209 0.454529H1.86724C1.35066 0.454529 0.930237 0.875646 0.930237 1.39309V3.75534C0.930237 4.27278 1.35066 4.69389 1.86724 4.69389H2.02526V28.6512C2.02526 29.7357 2.90598 30.6179 3.9884 30.6179H7.64289C10.355 30.6554 12.9254 30.6748 15.3847 30.6827V30.6815C16.0898 30.6815 16.0898 29.4934 15.3847 29.4934V29.4914H3.9884C3.52605 29.4914 3.14961 29.1146 3.14961 28.6512V4.69389H37.1383V28.6512C37.1383 29.1146 36.7621 29.4914 36.2998 29.4914H17.8526V30.687C21.3838 30.6883 24.6946 30.6691 27.8839 30.6506L27.8852 30.6506C30.7648 30.634 33.5454 30.6179 36.2998 30.6179C37.3822 30.6179 38.2629 29.7357 38.2629 28.6512V4.69389H38.4209C38.9375 4.69389 39.3579 4.27278 39.3579 3.75534V1.39309C39.3579 0.875646 38.9375 0.454529 38.4209 0.454529ZM38.2336 3.56739H2.05458V1.58103H38.2336V3.56739Z" fill="url(#paint0_linear_145_458)"/>
<path d="M17.8525 30.682C17.1475 30.682 17.1475 29.494 17.8525 29.494V30.682Z" fill="url(#paint1_linear_145_458)"/>
<path d="M14.4778 8.21059H5.71554C5.409 8.21059 5.16087 7.97375 5.16087 7.68177C5.16087 7.38979 5.409 7.15295 5.71554 7.15295H14.4778C14.7841 7.15295 15.0322 7.38979 15.0322 7.68177C15.0322 7.97375 14.7841 8.21059 14.4778 8.21059Z" fill="url(#paint2_linear_145_458)"/>
<path d="M25.9603 25.1328C25.985 25.1328 26.01 25.1328 26.0347 25.1325C30.6222 25.0937 34.385 21.3294 34.422 16.7419C34.4264 16.2039 34.38 15.6646 34.2838 15.1392C34.2309 14.8511 34.0674 14.603 33.8228 14.4404C33.5811 14.2798 33.2798 14.2237 32.9966 14.2863L26.8 15.6544L30.1379 10.6467C30.3091 10.39 30.3617 10.0713 30.2823 9.77288C30.2032 9.4771 30.0015 9.22954 29.7284 9.09341C28.5144 8.48892 27.1499 8.18462 25.7836 8.21225C25.4908 8.21813 25.1956 8.2396 24.906 8.27605C24.597 8.31486 24.3779 8.59682 24.4167 8.90583C24.4555 9.21484 24.7375 9.43388 25.0462 9.39478C25.2973 9.36332 25.5531 9.3448 25.8065 9.3398C26.9849 9.31481 28.1157 9.56207 29.1651 10.0731L25.7865 15.1416C25.5422 15.5079 25.5452 15.9795 25.7936 16.3429C26.0423 16.706 26.4807 16.8798 26.9109 16.7848L33.1848 15.3994C33.261 15.8369 33.298 16.285 33.2942 16.7325C33.2621 20.7088 30.0012 23.9712 26.025 24.005C26.0143 24.005 26.0035 24.005 25.9928 24.0051C25.9821 24.0052 25.9713 24.0053 25.9606 24.0053C24.0016 24.0053 22.1622 23.2438 20.7757 21.8572C19.3738 20.4553 18.6111 18.591 18.6279 16.6076C18.6394 15.2333 19.0392 13.8932 19.7837 12.7327C20.5099 11.6005 21.5286 10.6879 22.7291 10.0931C23.0084 9.95488 23.1225 9.61647 22.9843 9.33745C22.8461 9.05843 22.5077 8.94435 22.2287 9.08254C20.8448 9.76818 19.6711 10.8196 18.8346 12.1238C17.9752 13.4637 17.5136 15.0108 17.5003 16.5981C17.4807 18.8862 18.3606 21.0372 19.9783 22.6546C21.578 24.2546 23.6999 25.1331 25.9603 25.1328Z" fill="url(#paint3_linear_145_458)"/>
<path fill-rule="evenodd" clip-rule="evenodd" d="M30.0219 13.4036C30.2179 13.6891 30.534 13.8514 30.8682 13.8514C30.9473 13.8514 31.0278 13.8423 31.1077 13.8234L35.0372 12.8984C35.3241 12.8308 35.5688 12.6431 35.7089 12.3833C35.8487 12.1238 35.871 11.8165 35.7702 11.5403C35.3626 10.4233 34.6369 9.46238 33.6714 8.76099C33.4432 8.59504 33.1641 8.5303 32.8864 8.57892C32.6093 8.62698 32.3695 8.78191 32.2113 9.01457L30.0194 12.2385C29.7781 12.5931 29.7793 13.0502 30.0219 13.4036ZM33.0768 9.66903C33.8302 10.2285 34.4008 10.9828 34.7318 11.8563L30.9908 12.7369L33.0768 9.66903Z" fill="url(#paint4_linear_145_458)"/>
<path d="M5.70777 14.2048H12.3702C12.6722 14.2048 12.9168 13.9681 12.9168 13.6758C12.9168 13.3837 12.6722 13.1471 12.3702 13.1471H5.70777C5.40548 13.1471 5.1608 13.3837 5.1608 13.6758C5.1608 13.9681 5.40548 14.2048 5.70777 14.2048Z" fill="url(#paint5_linear_145_458)"/>
<path d="M10.9451 11.031H5.72254C5.41213 11.031 5.16087 10.7942 5.16087 10.5022C5.16087 10.2102 5.41213 9.97337 5.72254 9.97337H10.9451C11.2552 9.97337 11.5067 10.2102 11.5067 10.5022C11.5067 10.7942 11.2552 11.031 10.9451 11.031Z" fill="url(#paint6_linear_145_458)"/>
<path d="M5.71554 19.4921H14.4778C14.7841 19.4921 15.0322 19.2552 15.0322 18.9632C15.0322 18.6713 14.7841 18.4344 14.4778 18.4344H5.71554C5.409 18.4344 5.16087 18.6713 5.16087 18.9632C5.16087 19.2552 5.409 19.4921 5.71554 19.4921Z" fill="url(#paint7_linear_145_458)"/>
<path d="M12.3702 25.838H5.70785C5.40555 25.838 5.16087 25.6011 5.16087 25.3091C5.16087 25.0171 5.40555 24.7803 5.70785 24.7803H12.3702C12.6722 24.7803 12.9169 25.0171 12.9169 25.3091C12.9169 25.6011 12.6722 25.838 12.3702 25.838Z" fill="url(#paint8_linear_145_458)"/>
<path d="M5.72247 22.6659H10.945C11.2551 22.6659 11.5067 22.429 11.5067 22.1371C11.5067 21.8451 11.2551 21.6082 10.945 21.6082H5.72247C5.41205 21.6082 5.1608 21.8451 5.1608 22.1371C5.1608 22.429 5.41205 22.6659 5.72247 22.6659Z" fill="url(#paint9_linear_145_458)"/>
<defs>
<linearGradient id="paint0_linear_145_458" x1="1.60709" y1="0.454529" x2="38.6081" y2="30.0102" gradientUnits="userSpaceOnUse">
<stop stop-color="#0B27BA"/>
<stop offset="1" stop-color="#6C7AF6"/>
</linearGradient>
<linearGradient id="paint1_linear_145_458" x1="1.60709" y1="0.454529" x2="38.6081" y2="30.0102" gradientUnits="userSpaceOnUse">
<stop stop-color="#0B27BA"/>
<stop offset="1" stop-color="#6C7AF6"/>
</linearGradient>
<linearGradient id="paint2_linear_145_458" x1="1.60709" y1="0.454529" x2="38.6081" y2="30.0102" gradientUnits="userSpaceOnUse">
<stop stop-color="#0B27BA"/>
<stop offset="1" stop-color="#6C7AF6"/>
</linearGradient>
<linearGradient id="paint3_linear_145_458" x1="1.60709" y1="0.454529" x2="38.6081" y2="30.0102" gradientUnits="userSpaceOnUse">
<stop stop-color="#0B27BA"/>
<stop offset="1" stop-color="#6C7AF6"/>
</linearGradient>
<linearGradient id="paint4_linear_145_458" x1="1.60709" y1="0.454529" x2="38.6081" y2="30.0102" gradientUnits="userSpaceOnUse">
<stop stop-color="#0B27BA"/>
<stop offset="1" stop-color="#6C7AF6"/>
</linearGradient>
<linearGradient id="paint5_linear_145_458" x1="1.60709" y1="0.454529" x2="38.6081" y2="30.0102" gradientUnits="userSpaceOnUse">
<stop stop-color="#0B27BA"/>
<stop offset="1" stop-color="#6C7AF6"/>
</linearGradient>
<linearGradient id="paint6_linear_145_458" x1="1.60709" y1="0.454529" x2="38.6081" y2="30.0102" gradientUnits="userSpaceOnUse">
<stop stop-color="#0B27BA"/>
<stop offset="1" stop-color="#6C7AF6"/>
</linearGradient>
<linearGradient id="paint7_linear_145_458" x1="1.60709" y1="0.454529" x2="38.6081" y2="30.0102" gradientUnits="userSpaceOnUse">
<stop stop-color="#0B27BA"/>
<stop offset="1" stop-color="#6C7AF6"/>
</linearGradient>
<linearGradient id="paint8_linear_145_458" x1="1.60709" y1="0.454529" x2="38.6081" y2="30.0102" gradientUnits="userSpaceOnUse">
<stop stop-color="#0B27BA"/>
<stop offset="1" stop-color="#6C7AF6"/>
</linearGradient>
<linearGradient id="paint9_linear_145_458" x1="1.60709" y1="0.454529" x2="38.6081" y2="30.0102" gradientUnits="userSpaceOnUse">
<stop stop-color="#0B27BA"/>
<stop offset="1" stop-color="#6C7AF6"/>
</linearGradient>
</defs>
</svg>
