<svg width="40" height="40" viewBox="0 0 40 40" fill="none" xmlns="http://www.w3.org/2000/svg">
<path d="M9.76755 31.4312V10.0359C9.76755 5.20163 9.76755 3.98936 15.3489 2.36145H7.20941L4.88383 3.52424L4.18616 5.61726V20.9661V34.4545L5.34895 36.5475L6.97685 37.4777C7.36445 37.4777 9.9536 37.7103 15.3489 37.7103C9.76755 35.8498 9.76755 34.4545 9.76755 31.4312Z" fill="#EDEAFF"/>
<path d="M7.9029 1.86047C5.59101 1.86047 3.71685 3.73463 3.71685 6.04652V7.13482H2.35791C2.08318 7.13482 1.86047 7.35753 1.86047 7.63226C1.86047 7.90698 2.08318 8.12969 2.35791 8.12969H3.71685V11.1136H2.35791C2.08318 11.1136 1.86047 11.3363 1.86047 11.6111C1.86047 11.8858 2.08318 12.1085 2.35791 12.1085H3.71685V15.258H2.35791C2.08318 15.258 1.86047 15.4807 1.86047 15.7554C1.86047 16.0302 2.08318 16.2529 2.35791 16.2529H3.71685V19.4043H2.35791C2.08318 19.4043 1.86047 19.627 1.86047 19.9017C1.86047 20.1765 2.08318 20.3992 2.35791 20.3992H3.71685V23.4833H2.35791C2.08318 23.4833 1.86047 23.706 1.86047 23.9807C1.86047 24.2554 2.08318 24.4781 2.35791 24.4781H3.71685V27.5291H2.35791C2.08318 27.5291 1.86047 27.7518 1.86047 28.0265C1.86047 28.3012 2.08318 28.524 2.35791 28.524H3.71685V31.6752H2.35791C2.08318 31.6752 1.86047 31.8979 1.86047 32.1726C1.86047 32.4473 2.08318 32.67 2.35791 32.67H3.71685V33.7569C3.71685 36.0688 5.591 37.9429 7.90289 37.9429H28.6491C30.961 37.9429 32.8352 36.0688 32.8352 33.7569V27.7103C32.8352 27.4534 32.627 27.2452 32.3701 27.2452C32.1132 27.2452 31.905 27.4534 31.905 27.7103V33.7569C31.905 35.555 30.4473 37.0127 28.6491 37.0127H7.90289C6.10476 37.0127 4.64708 35.555 4.64708 33.7569V32.67H6.73368C7.0084 32.67 7.23111 32.4473 7.23111 32.1726C7.23111 31.8979 7.0084 31.6752 6.73368 31.6752H4.64708V28.524H6.73368C7.0084 28.524 7.23111 28.3012 7.23111 28.0265C7.23111 27.7518 7.0084 27.5291 6.73368 27.5291H4.64708V24.4781H6.73368C7.0084 24.4781 7.23111 24.2554 7.23111 23.9807C7.23111 23.706 7.0084 23.4833 6.73368 23.4833H4.64708V20.3992H6.73368C7.0084 20.3992 7.23111 20.1765 7.23111 19.9017C7.23111 19.627 7.0084 19.4043 6.73368 19.4043H4.64708V16.2529H6.73368C7.0084 16.2529 7.23111 16.0302 7.23111 15.7554C7.23111 15.4807 7.0084 15.258 6.73368 15.258H4.64708V12.1085H6.73368C7.0084 12.1085 7.23111 11.8858 7.23111 11.6111C7.23111 11.3363 7.0084 11.1136 6.73368 11.1136H4.64708V8.12969H6.73368C7.0084 8.12969 7.23111 7.90698 7.23111 7.63226C7.23111 7.35753 7.0084 7.13482 6.73368 7.13482H4.64708V6.04652C4.64708 4.24838 6.10476 2.79071 7.9029 2.79071H28.6492C30.4473 2.79071 31.905 4.24838 31.905 6.04652V15.018C31.905 15.2748 32.1132 15.4831 32.3701 15.4831C32.627 15.4831 32.8352 15.2748 32.8352 15.018V6.04652C32.8352 3.73463 30.961 1.86047 28.6492 1.86047H7.9029Z" fill="url(#paint0_linear_145_467)"/>
<path d="M12.7907 11.4312C12.4054 11.4312 12.093 11.7436 12.093 12.1289C12.093 12.5142 12.4054 12.8266 12.7907 12.8266H26.7442C27.1295 12.8266 27.4419 12.5142 27.4419 12.1289C27.4419 11.7436 27.1295 11.4312 26.7442 11.4312H12.7907Z" fill="url(#paint1_linear_145_467)"/>
<path d="M12.093 17.2452C12.093 16.8599 12.4054 16.5475 12.7907 16.5475H22.5581C22.9435 16.5475 23.2558 16.8599 23.2558 17.2452C23.2558 17.6305 22.9435 17.9429 22.5581 17.9429H12.7907C12.4054 17.9429 12.093 17.6305 12.093 17.2452Z" fill="url(#paint2_linear_145_467)"/>
<path d="M12.7907 21.1987C12.4054 21.1987 12.093 21.511 12.093 21.8964C12.093 22.2817 12.4054 22.594 12.7907 22.594H17.907C18.2923 22.594 18.6047 22.2817 18.6047 21.8964C18.6047 21.511 18.2923 21.1987 17.907 21.1987H12.7907Z" fill="url(#paint3_linear_145_467)"/>
<path fill-rule="evenodd" clip-rule="evenodd" d="M33.6386 15.9807C34.4111 15.1655 35.6977 15.1298 36.5142 15.9009L37.6469 16.9685C38.462 17.741 38.4977 19.0278 37.7266 19.8444L29.5767 28.4602C29.5729 28.4686 29.5648 28.4728 29.5608 28.477C29.5608 28.4794 29.5594 28.4803 29.5573 28.4817C29.556 28.4826 29.5545 28.4836 29.553 28.4853C29.547 28.4895 29.541 28.4948 29.535 28.5C29.5291 28.5053 29.5231 28.5105 29.5171 28.5147C29.5112 28.5189 29.5043 28.5231 29.4974 28.5274C29.4903 28.5317 29.4832 28.5361 29.4772 28.5404C29.475 28.5426 29.4722 28.5441 29.4691 28.5446C29.4579 28.552 29.4457 28.5578 29.433 28.562C29.4321 28.5629 29.4308 28.5642 29.4308 28.5642C29.4287 28.5661 29.428 28.5661 29.425 28.5662L24.3638 30.4122C24.3219 30.4261 24.2783 30.4342 24.2342 30.4362C24.1262 30.4396 24.0212 30.4 23.9421 30.3261C23.8296 30.2212 23.7872 30.061 23.833 29.9141L25.3913 24.754C25.3912 24.7498 25.3951 24.7497 25.395 24.7457C25.3968 24.7398 25.3987 24.7348 25.4005 24.7299C25.4025 24.7245 25.4045 24.7192 25.4064 24.7128C25.4084 24.7106 25.4094 24.7086 25.4103 24.7065C25.4113 24.7045 25.4122 24.7024 25.4141 24.7004C25.4182 24.6939 25.4212 24.6886 25.4242 24.6833C25.427 24.6783 25.4298 24.6732 25.4336 24.6672C25.4334 24.6632 25.4376 24.663 25.4375 24.659C25.4414 24.6527 25.4464 24.6464 25.4514 24.64C25.4562 24.6339 25.461 24.6278 25.4649 24.6217C25.467 24.6216 25.468 24.6205 25.469 24.6189C25.47 24.6174 25.4709 24.6153 25.4728 24.6133L25.4886 24.5964L32.9388 16.7245L33.6386 15.9807ZM26.359 24.8615L29.2683 27.6138L36.1568 20.3316L33.2475 17.5792L26.359 24.8615ZM28.5228 28.0295L25.9811 25.625L24.8436 29.369L28.5228 28.0295ZM36.7183 19.738L37.1374 19.2908C37.599 18.8015 37.5794 18.0312 37.0935 17.5659L35.9566 16.4903C35.4671 16.0277 34.6952 16.0491 34.2322 16.5381L33.8089 16.9854L36.7183 19.738Z" fill="url(#paint4_linear_145_467)"/>
<defs>
<linearGradient id="paint0_linear_145_467" x1="5.11629" y1="3.29171" x2="31.1628" y2="37.9429" gradientUnits="userSpaceOnUse">
<stop stop-color="#0B27BA"/>
<stop offset="1" stop-color="#6C7AF6"/>
</linearGradient>
<linearGradient id="paint1_linear_145_467" x1="5.11629" y1="3.29171" x2="31.1628" y2="37.9429" gradientUnits="userSpaceOnUse">
<stop stop-color="#0B27BA"/>
<stop offset="1" stop-color="#6C7AF6"/>
</linearGradient>
<linearGradient id="paint2_linear_145_467" x1="5.11629" y1="3.29171" x2="31.1628" y2="37.9429" gradientUnits="userSpaceOnUse">
<stop stop-color="#0B27BA"/>
<stop offset="1" stop-color="#6C7AF6"/>
</linearGradient>
<linearGradient id="paint3_linear_145_467" x1="5.11629" y1="3.29171" x2="31.1628" y2="37.9429" gradientUnits="userSpaceOnUse">
<stop stop-color="#0B27BA"/>
<stop offset="1" stop-color="#6C7AF6"/>
</linearGradient>
<linearGradient id="paint4_linear_145_467" x1="5.11629" y1="3.29171" x2="31.1628" y2="37.9429" gradientUnits="userSpaceOnUse">
<stop stop-color="#0B27BA"/>
<stop offset="1" stop-color="#6C7AF6"/>
</linearGradient>
</defs>
</svg>
