<svg width="33" height="33" viewBox="0 0 33 33" fill="none" xmlns="http://www.w3.org/2000/svg">
<path fill-rule="evenodd" clip-rule="evenodd" d="M24.1395 1.18604C27.3953 3.0465 28.3256 4.90697 28.3256 6.99999V20.0232L31.3488 19.093L31.5814 16.3023V8.86045L31.3488 2.81394L30.4186 1.41859L26.9302 1.18604H24.1395ZM8.09301 10.0232C4.37208 12.1163 3.90697 14.4418 3.90697 16.5349V28.3953L1.34883 27.6977L0.651154 25.1395V17.6977L0.883712 11.6512L1.81394 10.2558L5.30232 10.0232H8.09301Z" fill="#EDEAFF"/>
<path fill-rule="evenodd" clip-rule="evenodd" d="M12.8477 0.720947H29.1449C30.8731 0.720947 32.279 2.12689 32.279 3.85503V17.1435C32.279 19.0474 31.2456 20.2776 29.6464 20.2776H28.6524L25.0751 23.855C24.9552 23.9748 24.7948 24.0386 24.6317 24.0386C24.5509 24.0386 24.4695 24.0229 24.392 23.9908C24.1578 23.8938 24.005 23.6652 24.005 23.4117V20.2776H22.7514V25.9189C22.7514 27.6471 21.3455 29.053 19.6173 29.053H9.22108L5.64378 32.6304C5.52387 32.7502 5.36353 32.814 5.20044 32.814C5.11964 32.814 5.03822 32.7984 4.96068 32.7662C4.7265 32.6692 4.57375 32.4406 4.57375 32.1871V29.053H3.32011C1.59198 29.053 0.186035 27.6471 0.186035 25.9189V12.6304C0.186035 10.9023 1.59198 9.49637 3.32011 9.49637H9.71363V3.85503C9.71363 2.12689 11.1196 0.720947 12.8477 0.720947ZM19.6173 27.7994C20.6542 27.7994 21.4978 26.9558 21.4978 25.9189V12.6304C21.4978 11.5936 20.6542 10.75 19.6173 10.75H3.32011C2.28324 10.75 1.43967 11.5936 1.43967 12.6304V25.9189C1.43967 26.9558 2.28324 27.7994 3.32011 27.7994H5.20056C5.54675 27.7994 5.82738 28.08 5.82738 28.4262V30.6738L8.51823 27.983C8.63576 27.8654 8.79522 27.7994 8.96146 27.7994H19.6173ZM29.6464 19.024C30.8462 19.024 31.0254 17.8458 31.0254 17.1435V3.85503C31.0254 2.81815 30.1818 1.97458 29.1449 1.97458H12.8477C11.8108 1.97458 10.9673 2.81815 10.9673 3.85503V9.49637H19.6173C21.3455 9.49637 22.7514 10.9023 22.7514 12.6304V13.2573H26.6377C26.9838 13.2573 27.2645 13.5379 27.2645 13.8841C27.2645 14.2303 26.9838 14.5109 26.6377 14.5109H22.7514V19.024H24.6318C24.978 19.024 25.2587 19.3046 25.2587 19.6508V21.8984L27.9495 19.2076C28.067 19.09 28.2265 19.024 28.3927 19.024H29.6464ZM15.355 5.73547H26.6377C26.9839 5.73547 27.2645 6.01609 27.2645 6.36228C27.2645 6.70847 26.9839 6.9891 26.6377 6.9891H15.355C15.0088 6.9891 14.7282 6.70847 14.7282 6.36228C14.7282 6.01609 15.0088 5.73547 15.355 5.73547ZM26.6377 9.49637H24.1304C23.7843 9.49637 23.5036 9.77699 23.5036 10.1232C23.5036 10.4694 23.7843 10.75 24.1304 10.75H26.6377C26.9839 10.75 27.2645 10.4694 27.2645 10.1232C27.2645 9.77699 26.9839 9.49637 26.6377 9.49637ZM6.45421 15.1377C6.45421 15.4831 6.17277 15.7645 5.8274 15.7645C5.48202 15.7645 5.20058 15.4831 5.20058 15.1377C5.20058 14.7923 5.48202 14.5109 5.8274 14.5109C6.17277 14.5109 6.45421 14.7923 6.45421 15.1377ZM17.1101 14.5109H8.33466C7.98929 14.5109 7.70785 14.7923 7.70785 15.1377C7.70785 15.4831 7.98929 15.7645 8.33466 15.7645H17.1101C17.4555 15.7645 17.7369 15.4831 17.7369 15.1377C17.7369 14.7923 17.4555 14.5109 17.1101 14.5109ZM10.8419 18.2718H17.1101C17.4563 18.2718 17.7369 18.5524 17.7369 18.8986C17.7369 19.2448 17.4563 19.5254 17.1101 19.5254H10.8419C10.4957 19.5254 10.2151 19.2448 10.2151 18.8986C10.2151 18.5524 10.4957 18.2718 10.8419 18.2718ZM5.8274 19.5254H8.33466C8.68085 19.5254 8.96148 19.2448 8.96148 18.8986C8.96148 18.5524 8.68085 18.2718 8.33466 18.2718H5.8274C5.48121 18.2718 5.20058 18.5524 5.20058 18.8986C5.20058 19.2448 5.48121 19.5254 5.8274 19.5254ZM5.95276 22.0326H12.0956C12.4417 22.0326 12.7224 22.3132 12.7224 22.6594C12.7224 23.0056 12.4417 23.2862 12.0956 23.2862H5.95276C5.60657 23.2862 5.32594 23.0056 5.32594 22.6594C5.32594 22.3132 5.60657 22.0326 5.95276 22.0326Z" fill="url(#paint0_linear_145_487)"/>
<defs>
<linearGradient id="paint0_linear_145_487" x1="3.44185" y1="0.720948" x2="26.4651" y2="31.1861" gradientUnits="userSpaceOnUse">
<stop stop-color="#0B27BA"/>
<stop offset="1" stop-color="#6C7AF6"/>
</linearGradient>
</defs>
</svg>
